<mxfile host="app.diagrams.net" modified="2024-04-23T16:50:42.196Z" agent="Mozilla/5.0 (Windows NT 10.0; Win64; x64) AppleWebKit/537.36 (KHTML, like Gecko) Chrome/123.0.0.0 Safari/537.36" etag="7hrq4zu4BV6reEpUqXHu" version="24.2.5" type="device">
  <diagram name="Сторінка-1" id="lrrf3L941-L4NF6Af_pR">
    <mxGraphModel dx="860" dy="913" grid="1" gridSize="10" guides="1" tooltips="1" connect="1" arrows="1" fold="1" page="1" pageScale="1" pageWidth="850" pageHeight="1100" math="0" shadow="0">
      <root>
        <mxCell id="0" />
        <mxCell id="1" parent="0" />
        <mxCell id="m-BdceqZBxWO6tR8v1eH-1" value="" style="rounded=0;whiteSpace=wrap;html=1;" vertex="1" parent="1">
          <mxGeometry x="155" y="290" width="320" height="190" as="geometry" />
        </mxCell>
        <mxCell id="m-BdceqZBxWO6tR8v1eH-2" value="&lt;b&gt;Game Class&lt;/b&gt;" style="text;html=1;align=center;verticalAlign=middle;whiteSpace=wrap;rounded=0;" vertex="1" parent="1">
          <mxGeometry x="255" y="290" width="120" height="30" as="geometry" />
        </mxCell>
        <mxCell id="m-BdceqZBxWO6tR8v1eH-8" style="edgeStyle=orthogonalEdgeStyle;rounded=0;orthogonalLoop=1;jettySize=auto;html=1;" edge="1" parent="1" source="m-BdceqZBxWO6tR8v1eH-3" target="m-BdceqZBxWO6tR8v1eH-5">
          <mxGeometry relative="1" as="geometry" />
        </mxCell>
        <mxCell id="m-BdceqZBxWO6tR8v1eH-3" value="Items:List&amp;lt;Item&amp;gt;" style="rounded=0;whiteSpace=wrap;html=1;" vertex="1" parent="1">
          <mxGeometry x="170" y="320" width="100" height="30" as="geometry" />
        </mxCell>
        <mxCell id="m-BdceqZBxWO6tR8v1eH-9" style="edgeStyle=orthogonalEdgeStyle;rounded=0;orthogonalLoop=1;jettySize=auto;html=1;" edge="1" parent="1" source="m-BdceqZBxWO6tR8v1eH-4" target="m-BdceqZBxWO6tR8v1eH-5">
          <mxGeometry relative="1" as="geometry" />
        </mxCell>
        <mxCell id="m-BdceqZBxWO6tR8v1eH-4" value="Characters:List&amp;lt;Character&amp;gt;" style="rounded=0;whiteSpace=wrap;html=1;" vertex="1" parent="1">
          <mxGeometry x="285" y="320" width="155" height="30" as="geometry" />
        </mxCell>
        <mxCell id="m-BdceqZBxWO6tR8v1eH-7" style="edgeStyle=orthogonalEdgeStyle;rounded=0;orthogonalLoop=1;jettySize=auto;html=1;entryX=0.5;entryY=0;entryDx=0;entryDy=0;" edge="1" parent="1" source="m-BdceqZBxWO6tR8v1eH-5" target="m-BdceqZBxWO6tR8v1eH-6">
          <mxGeometry relative="1" as="geometry" />
        </mxCell>
        <mxCell id="m-BdceqZBxWO6tR8v1eH-5" value="+ SaveToXml(string filename):void" style="rounded=0;whiteSpace=wrap;html=1;" vertex="1" parent="1">
          <mxGeometry x="220" y="380" width="210" height="30" as="geometry" />
        </mxCell>
        <mxCell id="m-BdceqZBxWO6tR8v1eH-6" value="+ LoadFromXml(string filename):Game" style="rounded=0;whiteSpace=wrap;html=1;" vertex="1" parent="1">
          <mxGeometry x="215" y="430" width="220" height="30" as="geometry" />
        </mxCell>
        <mxCell id="m-BdceqZBxWO6tR8v1eH-14" style="edgeStyle=orthogonalEdgeStyle;rounded=0;orthogonalLoop=1;jettySize=auto;html=1;" edge="1" parent="1" source="m-BdceqZBxWO6tR8v1eH-10" target="m-BdceqZBxWO6tR8v1eH-11">
          <mxGeometry relative="1" as="geometry" />
        </mxCell>
        <mxCell id="m-BdceqZBxWO6tR8v1eH-15" style="edgeStyle=orthogonalEdgeStyle;rounded=0;orthogonalLoop=1;jettySize=auto;html=1;" edge="1" parent="1" source="m-BdceqZBxWO6tR8v1eH-10" target="m-BdceqZBxWO6tR8v1eH-12">
          <mxGeometry relative="1" as="geometry" />
        </mxCell>
        <mxCell id="m-BdceqZBxWO6tR8v1eH-16" style="edgeStyle=orthogonalEdgeStyle;rounded=0;orthogonalLoop=1;jettySize=auto;html=1;" edge="1" parent="1" source="m-BdceqZBxWO6tR8v1eH-10" target="m-BdceqZBxWO6tR8v1eH-13">
          <mxGeometry relative="1" as="geometry" />
        </mxCell>
        <mxCell id="m-BdceqZBxWO6tR8v1eH-17" style="edgeStyle=orthogonalEdgeStyle;rounded=0;orthogonalLoop=1;jettySize=auto;html=1;entryX=1;entryY=0.5;entryDx=0;entryDy=0;" edge="1" parent="1" source="m-BdceqZBxWO6tR8v1eH-10" target="m-BdceqZBxWO6tR8v1eH-5">
          <mxGeometry relative="1" as="geometry" />
        </mxCell>
        <mxCell id="m-BdceqZBxWO6tR8v1eH-18" style="edgeStyle=orthogonalEdgeStyle;rounded=0;orthogonalLoop=1;jettySize=auto;html=1;entryX=1;entryY=0.5;entryDx=0;entryDy=0;" edge="1" parent="1" source="m-BdceqZBxWO6tR8v1eH-10" target="m-BdceqZBxWO6tR8v1eH-6">
          <mxGeometry relative="1" as="geometry">
            <Array as="points">
              <mxPoint x="470" y="315" />
              <mxPoint x="470" y="445" />
            </Array>
          </mxGeometry>
        </mxCell>
        <mxCell id="m-BdceqZBxWO6tR8v1eH-10" value="Program" style="rounded=0;whiteSpace=wrap;html=1;" vertex="1" parent="1">
          <mxGeometry x="500" y="300" width="70" height="30" as="geometry" />
        </mxCell>
        <mxCell id="m-BdceqZBxWO6tR8v1eH-11" value="Game" style="rounded=0;whiteSpace=wrap;html=1;" vertex="1" parent="1">
          <mxGeometry x="500" y="360" width="70" height="30" as="geometry" />
        </mxCell>
        <mxCell id="m-BdceqZBxWO6tR8v1eH-12" value="Character" style="rounded=0;whiteSpace=wrap;html=1;" vertex="1" parent="1">
          <mxGeometry x="580" y="360" width="70" height="30" as="geometry" />
        </mxCell>
        <mxCell id="m-BdceqZBxWO6tR8v1eH-13" value="Item" style="rounded=0;whiteSpace=wrap;html=1;" vertex="1" parent="1">
          <mxGeometry x="660" y="360" width="70" height="30" as="geometry" />
        </mxCell>
        <mxCell id="m-BdceqZBxWO6tR8v1eH-19" style="edgeStyle=orthogonalEdgeStyle;rounded=0;orthogonalLoop=1;jettySize=auto;html=1;exitX=1;exitY=0;exitDx=0;exitDy=0;entryX=0.75;entryY=0;entryDx=0;entryDy=0;" edge="1" parent="1" source="m-BdceqZBxWO6tR8v1eH-4" target="m-BdceqZBxWO6tR8v1eH-4">
          <mxGeometry relative="1" as="geometry" />
        </mxCell>
        <mxCell id="m-BdceqZBxWO6tR8v1eH-20" value="" style="rounded=0;whiteSpace=wrap;html=1;" vertex="1" parent="1">
          <mxGeometry x="740" y="290" width="670" height="185" as="geometry" />
        </mxCell>
        <mxCell id="m-BdceqZBxWO6tR8v1eH-21" value="&lt;b&gt;Character Class&lt;/b&gt;" style="text;html=1;align=center;verticalAlign=middle;whiteSpace=wrap;rounded=0;" vertex="1" parent="1">
          <mxGeometry x="1010" y="290" width="130" height="30" as="geometry" />
        </mxCell>
        <mxCell id="m-BdceqZBxWO6tR8v1eH-32" style="edgeStyle=orthogonalEdgeStyle;rounded=0;orthogonalLoop=1;jettySize=auto;html=1;" edge="1" parent="1" source="m-BdceqZBxWO6tR8v1eH-23" target="m-BdceqZBxWO6tR8v1eH-31">
          <mxGeometry relative="1" as="geometry">
            <Array as="points">
              <mxPoint x="800" y="397.5" />
              <mxPoint x="1075" y="397.5" />
            </Array>
          </mxGeometry>
        </mxCell>
        <mxCell id="m-BdceqZBxWO6tR8v1eH-23" value="- Inteligence:int" style="rounded=0;whiteSpace=wrap;html=1;" vertex="1" parent="1">
          <mxGeometry x="750" y="322.5" width="100" height="30" as="geometry" />
        </mxCell>
        <mxCell id="m-BdceqZBxWO6tR8v1eH-33" style="edgeStyle=orthogonalEdgeStyle;rounded=0;orthogonalLoop=1;jettySize=auto;html=1;" edge="1" parent="1" source="m-BdceqZBxWO6tR8v1eH-26" target="m-BdceqZBxWO6tR8v1eH-31">
          <mxGeometry relative="1" as="geometry">
            <Array as="points">
              <mxPoint x="910" y="387.5" />
              <mxPoint x="1075" y="387.5" />
            </Array>
          </mxGeometry>
        </mxCell>
        <mxCell id="m-BdceqZBxWO6tR8v1eH-26" value="- Agility:int" style="rounded=0;whiteSpace=wrap;html=1;" vertex="1" parent="1">
          <mxGeometry x="860" y="322.5" width="100" height="30" as="geometry" />
        </mxCell>
        <mxCell id="m-BdceqZBxWO6tR8v1eH-34" style="edgeStyle=orthogonalEdgeStyle;rounded=0;orthogonalLoop=1;jettySize=auto;html=1;" edge="1" parent="1" source="m-BdceqZBxWO6tR8v1eH-27" target="m-BdceqZBxWO6tR8v1eH-31">
          <mxGeometry relative="1" as="geometry">
            <Array as="points">
              <mxPoint x="1020" y="377.5" />
              <mxPoint x="1075" y="377.5" />
            </Array>
          </mxGeometry>
        </mxCell>
        <mxCell id="m-BdceqZBxWO6tR8v1eH-27" value="- Strength:int" style="rounded=0;whiteSpace=wrap;html=1;" vertex="1" parent="1">
          <mxGeometry x="970" y="322.5" width="100" height="30" as="geometry" />
        </mxCell>
        <mxCell id="m-BdceqZBxWO6tR8v1eH-37" style="edgeStyle=orthogonalEdgeStyle;rounded=0;orthogonalLoop=1;jettySize=auto;html=1;entryX=0.5;entryY=0;entryDx=0;entryDy=0;" edge="1" parent="1" source="m-BdceqZBxWO6tR8v1eH-28" target="m-BdceqZBxWO6tR8v1eH-31">
          <mxGeometry relative="1" as="geometry">
            <Array as="points">
              <mxPoint x="1130" y="377.5" />
              <mxPoint x="1075" y="377.5" />
            </Array>
          </mxGeometry>
        </mxCell>
        <mxCell id="m-BdceqZBxWO6tR8v1eH-28" value="- Health:int" style="rounded=0;whiteSpace=wrap;html=1;" vertex="1" parent="1">
          <mxGeometry x="1080" y="322.5" width="100" height="30" as="geometry" />
        </mxCell>
        <mxCell id="m-BdceqZBxWO6tR8v1eH-36" style="edgeStyle=orthogonalEdgeStyle;rounded=0;orthogonalLoop=1;jettySize=auto;html=1;" edge="1" parent="1" source="m-BdceqZBxWO6tR8v1eH-29" target="m-BdceqZBxWO6tR8v1eH-31">
          <mxGeometry relative="1" as="geometry">
            <Array as="points">
              <mxPoint x="1240" y="387.5" />
              <mxPoint x="1075" y="387.5" />
            </Array>
          </mxGeometry>
        </mxCell>
        <mxCell id="m-BdceqZBxWO6tR8v1eH-29" value="- Level:int" style="rounded=0;whiteSpace=wrap;html=1;" vertex="1" parent="1">
          <mxGeometry x="1190" y="322.5" width="100" height="30" as="geometry" />
        </mxCell>
        <mxCell id="m-BdceqZBxWO6tR8v1eH-35" style="edgeStyle=orthogonalEdgeStyle;rounded=0;orthogonalLoop=1;jettySize=auto;html=1;" edge="1" parent="1" source="m-BdceqZBxWO6tR8v1eH-30" target="m-BdceqZBxWO6tR8v1eH-31">
          <mxGeometry relative="1" as="geometry">
            <Array as="points">
              <mxPoint x="1350" y="397.5" />
              <mxPoint x="1075" y="397.5" />
            </Array>
          </mxGeometry>
        </mxCell>
        <mxCell id="m-BdceqZBxWO6tR8v1eH-30" value="- Name:int" style="rounded=0;whiteSpace=wrap;html=1;" vertex="1" parent="1">
          <mxGeometry x="1300" y="322.5" width="100" height="30" as="geometry" />
        </mxCell>
        <mxCell id="m-BdceqZBxWO6tR8v1eH-31" value="- Inventory:List&amp;lt;item&amp;gt;" style="rounded=0;whiteSpace=wrap;html=1;" vertex="1" parent="1">
          <mxGeometry x="1010" y="417.5" width="130" height="40" as="geometry" />
        </mxCell>
        <mxCell id="m-BdceqZBxWO6tR8v1eH-38" value="" style="rounded=0;whiteSpace=wrap;html=1;" vertex="1" parent="1">
          <mxGeometry x="1430" y="260" width="145" height="280" as="geometry" />
        </mxCell>
        <mxCell id="m-BdceqZBxWO6tR8v1eH-40" value="- Name:string" style="rounded=0;whiteSpace=wrap;html=1;" vertex="1" parent="1">
          <mxGeometry x="1452.5" y="310" width="100" height="30" as="geometry" />
        </mxCell>
        <mxCell id="m-BdceqZBxWO6tR8v1eH-41" value="- Type:string" style="rounded=0;whiteSpace=wrap;html=1;" vertex="1" parent="1">
          <mxGeometry x="1452.5" y="370" width="100" height="30" as="geometry" />
        </mxCell>
        <mxCell id="m-BdceqZBxWO6tR8v1eH-42" value="- Value:string" style="rounded=0;whiteSpace=wrap;html=1;" vertex="1" parent="1">
          <mxGeometry x="1452.5" y="430" width="100" height="30" as="geometry" />
        </mxCell>
        <mxCell id="m-BdceqZBxWO6tR8v1eH-43" value="- Weight:string" style="rounded=0;whiteSpace=wrap;html=1;" vertex="1" parent="1">
          <mxGeometry x="1452.5" y="490" width="100" height="30" as="geometry" />
        </mxCell>
        <mxCell id="m-BdceqZBxWO6tR8v1eH-46" value="&lt;b&gt;Item Class&lt;/b&gt;" style="text;html=1;align=center;verticalAlign=middle;whiteSpace=wrap;rounded=0;" vertex="1" parent="1">
          <mxGeometry x="1437.5" y="260" width="130" height="30" as="geometry" />
        </mxCell>
      </root>
    </mxGraphModel>
  </diagram>
</mxfile>
